<svg xmlns="http://www.w3.org/2000/svg" width="431" height="489" viewBox="0 0 431 489" version="1.1"><path d="M 207.500 40.666 C 203.100 43.743, 181.275 58.499, 159 73.459 C 43.425 151.075, 35.265 156.581, 33.628 158.057 C 33.149 158.490, 38.875 162.904, 46.353 167.867 C 53.832 172.829, 60.205 176.477, 60.516 175.973 C 61.072 175.074, 96.214 150.411, 139.559 120.500 C 145.935 116.100, 152.658 111.375, 154.500 110 C 156.342 108.625, 163.065 103.900, 169.440 99.500 C 179.945 92.250, 194.807 81.886, 210.253 71.040 C 213.418 68.818, 216.760 67, 217.680 67 C 219.499 67, 224.393 70.164, 251 88.542 C 260.625 95.190, 275.700 105.513, 284.500 111.483 C 322.153 137.024, 329.713 142.176, 352.500 157.826 C 365.700 166.891, 377.625 175.073, 379 176.010 L 381.500 177.712 390.010 172.106 C 394.690 169.023, 399.517 165.791, 400.735 164.923 L 402.950 163.347 396.725 159.042 C 393.301 156.674, 383.525 149.969, 375 144.143 C 366.475 138.316, 357.025 131.841, 354 129.753 C 350.975 127.665, 343.550 122.563, 337.500 118.415 C 331.450 114.267, 322 107.744, 316.500 103.919 C 311 100.094, 303.575 94.998, 300 92.594 C 296.425 90.190, 289 85.096, 283.500 81.272 C 270.520 72.249, 250.735 58.623, 240 51.313 C 235.325 48.130, 228.416 43.350, 224.647 40.692 C 220.878 38.033, 217.278 35.681, 216.647 35.465 C 216.016 35.249, 211.900 37.589, 207.500 40.666 M 205.500 110.080 C 199.450 114.473, 190.900 120.557, 186.500 123.600 C 182.100 126.643, 176.025 130.911, 173 133.084 C 169.975 135.258, 165.700 138.294, 163.500 139.831 C 148.855 150.065, 131.110 162.624, 129 164.250 C 125.581 166.884, 105.503 180.969, 94.354 188.553 L 85.209 194.774 87.771 195.941 C 89.180 196.583, 95.646 200.684, 102.141 205.054 C 108.636 209.424, 114.260 213, 114.638 213 C 115.222 213, 120.860 208.801, 141.495 193 C 143.291 191.625, 151.676 185.217, 160.130 178.759 C 168.583 172.302, 179.775 163.735, 185 159.722 C 210.468 140.159, 217.445 135, 218.431 135 C 219.020 135, 225.802 139.297, 233.501 144.548 C 241.201 149.800, 249.975 155.758, 253 157.789 C 256.025 159.821, 267.761 167.836, 279.080 175.601 C 290.400 183.366, 306.663 194.465, 315.221 200.264 L 330.782 210.808 342.386 203.300 C 348.768 199.170, 353.773 195.441, 353.508 195.012 C 353.243 194.584, 344.358 188.392, 333.763 181.253 C 316.149 169.383, 275.714 141.967, 268.500 137.001 C 253.638 126.772, 216.998 102.010, 216.779 102.046 C 216.625 102.072, 211.550 105.687, 205.500 110.080 M 183.457 191.557 C 165.331 204.402, 147.218 217.294, 143.207 220.206 C 139.196 223.118, 135.267 225.644, 134.477 225.819 C 133.687 225.995, 138.476 229.730, 145.120 234.119 L 157.198 242.100 159.349 240.596 C 160.532 239.768, 168.025 234.371, 176 228.602 C 183.975 222.832, 193.545 215.949, 197.266 213.306 C 200.988 210.663, 206.613 206.599, 209.766 204.277 C 212.920 201.954, 216.192 200.041, 217.038 200.027 C 217.884 200.012, 223.509 203.620, 229.538 208.045 C 235.567 212.469, 241.924 217.082, 243.664 218.295 C 245.404 219.508, 254.012 225.787, 262.792 232.250 C 271.573 238.713, 279.022 244, 279.346 244 C 279.670 244, 285.272 240.497, 291.795 236.215 L 303.656 228.430 286.276 216.465 C 276.718 209.884, 262.283 199.915, 254.199 194.310 C 246.114 188.706, 234.306 180.539, 227.957 176.161 L 216.414 168.202 183.457 191.557 M 407.389 186.500 C 407.390 193.650, 407.550 196.444, 407.742 192.708 C 407.935 188.973, 407.934 183.123, 407.739 179.708 C 407.545 176.294, 407.387 179.350, 407.389 186.500 M 31.195 252.500 C 31.215 254.150, 31.439 254.704, 31.693 253.731 C 31.947 252.758, 31.930 251.408, 31.656 250.731 C 31.382 250.054, 31.175 250.850, 31.195 252.500 M 33.195 314.500 C 33.215 316.150, 33.439 316.704, 33.693 315.731 C 33.947 314.758, 33.930 313.408, 33.656 312.731 C 33.382 312.054, 33.175 312.850, 33.195 314.500 M 312.300 392 C 312.300 395.025, 312.487 396.262, 312.716 394.750 C 312.945 393.238, 312.945 390.762, 312.716 389.250 C 312.487 387.738, 312.300 388.975, 312.300 392" stroke="none" fill="#ea7832" fill-rule="evenodd"/><path d="M 28.565 159.692 C 28.254 160.501, 28 167.808, 28 175.929 L 28 190.694 29.822 191.597 C 30.825 192.094, 56.137 209.342, 86.072 229.926 C 116.008 250.511, 157.761 279.221, 178.859 293.726 L 217.218 320.099 231.359 311.229 C 249.497 299.853, 288.084 275.607, 354 234.168 L 406.500 201.163 406.772 181.968 L 407.044 162.772 404.654 163.372 C 403.339 163.702, 397.464 167.241, 391.597 171.236 C 385.731 175.231, 376.109 181.783, 370.216 185.796 C 364.322 189.809, 357.475 194.175, 355 195.498 C 352.525 196.822, 345.955 200.964, 340.400 204.703 C 316.345 220.891, 304.394 228.715, 302.909 229.246 C 302.035 229.559, 295.120 234.019, 287.544 239.157 C 253 262.586, 220.748 283.011, 218.384 282.957 C 217.348 282.933, 203 273.704, 186.500 262.449 C 153.151 239.701, 139.178 230.326, 124.800 221.056 C 119.466 217.616, 114.966 214.469, 114.800 214.063 C 114.407 213.093, 91.511 197.785, 87.022 195.491 C 83.137 193.505, 62.609 179.663, 59.500 176.933 C 55.867 173.742, 33.543 159.374, 31.315 158.792 C 29.904 158.423, 28.929 158.743, 28.565 159.692 M 33.669 227.727 C 33.388 228.181, 32.640 236.591, 32.005 246.416 L 30.852 264.280 32.176 265.510 C 32.904 266.186, 74.762 294.262, 125.192 327.901 L 216.884 389.064 292.926 340.782 L 368.967 292.500 368.983 273.143 C 368.996 258.044, 368.725 253.892, 367.748 254.267 C 367.059 254.531, 333.087 276.659, 292.254 303.441 L 218.013 352.135 209.757 346.678 C 205.215 343.678, 199.250 339.651, 196.500 337.730 C 193.750 335.809, 156.625 310.497, 114 281.481 C 71.375 252.465, 35.978 228.315, 35.339 227.814 C 34.700 227.313, 33.949 227.274, 33.669 227.727 M 34.684 298.750 C 34.445 299.163, 33.926 306.661, 33.530 315.413 C 33.135 324.166, 32.619 331.829, 32.384 332.442 C 32.149 333.055, 73.603 361.428, 124.504 395.494 L 217.051 457.432 219.775 455.750 C 221.274 454.824, 242.876 441.789, 267.781 426.783 L 313.061 399.500 312.544 397.500 C 312.260 396.400, 312.021 388.135, 312.014 379.133 L 312 362.767 310.250 363.242 C 309.288 363.504, 288.070 376.577, 263.100 392.293 L 217.699 420.867 201.100 409.573 C 160.581 382.005, 35.933 298, 35.546 298 C 35.311 298, 34.923 298.337, 34.684 298.750" stroke="none" fill="#43297b" fill-rule="evenodd"/><path d="M 187.500 29.611 C 142.685 59.149, 95.487 90.179, 52.750 118.202 L 13 144.267 13 241.633 C 13 295.185, 12.887 339.307, 12.750 339.681 C 12.347 340.779, 22.543 347.797, 105.500 403.530 C 142.961 428.698, 168.483 445.859, 197.425 465.340 C 207.916 472.402, 217.031 478.401, 217.680 478.670 C 218.329 478.940, 221.929 477.179, 225.680 474.758 C 233.161 469.928, 242.287 464.425, 248.500 460.997 C 250.700 459.783, 257.354 455.799, 263.287 452.145 C 269.220 448.490, 275.295 444.767, 276.787 443.872 C 281.565 441.003, 380.158 381.464, 389.500 375.805 C 394.450 372.806, 403.973 367.100, 410.663 363.125 C 417.353 359.149, 423.025 355.357, 423.269 354.698 C 423.512 354.039, 423.489 307.013, 423.216 250.195 L 422.721 146.890 414.611 141.406 C 406.244 135.749, 388.066 123.750, 346.500 96.446 C 333.300 87.775, 313.500 74.768, 302.500 67.542 C 291.500 60.316, 268.100 44.887, 250.500 33.255 C 232.900 21.623, 217.825 11.893, 217 11.632 C 216.159 11.366, 203.205 19.261, 187.500 29.611 M 191 51.035 C 178.075 59.827, 148.262 79.953, 124.750 95.760 C 101.237 111.567, 70.862 132.027, 57.250 141.226 C 42.365 151.284, 31.797 157.798, 30.737 157.566 C 27.712 156.904, 27 160.368, 27 175.757 L 27 190.645 30.750 193.115 C 35.183 196.035, 185.709 299.338, 204.325 312.236 L 217.150 321.122 229.825 313.189 C 236.796 308.826, 252.850 298.750, 265.500 290.797 C 278.150 282.845, 314.150 260.227, 345.500 240.534 C 376.850 220.842, 403.747 203.853, 405.271 202.782 L 408.043 200.833 407.771 181.667 L 407.500 162.500 405.287 162.575 C 404.071 162.617, 398.221 159.335, 392.287 155.283 C 371.002 140.745, 362.324 134.792, 351 126.956 C 344.675 122.579, 334.550 115.603, 328.500 111.453 C 322.450 107.302, 310.199 98.865, 301.275 92.703 C 292.352 86.541, 281.780 79.250, 277.782 76.500 C 273.784 73.750, 258.810 63.439, 244.507 53.586 C 230.203 43.734, 217.600 35.533, 216.500 35.361 C 215.231 35.164, 205.913 40.891, 191 51.035 M 193.500 83.446 C 181.400 91.909, 166.435 102.358, 160.245 106.666 C 154.054 110.975, 143.704 118.187, 137.245 122.693 C 130.785 127.199, 120.419 134.399, 114.208 138.693 C 107.997 142.987, 102.372 146.951, 101.708 147.502 C 101.044 148.053, 98.700 149.707, 96.500 151.177 C 94.300 152.647, 89.741 155.797, 86.370 158.175 C 82.998 160.554, 76.698 164.935, 72.370 167.911 C 68.041 170.886, 63.509 174.084, 62.298 175.016 L 60.097 176.712 71.695 184.606 C 78.073 188.948, 83.858 192.835, 84.549 193.245 C 85.334 193.711, 92.134 189.515, 102.653 182.076 C 111.919 175.523, 123.100 167.622, 127.500 164.520 C 131.900 161.417, 146.975 150.745, 161 140.805 C 184.039 124.477, 190.540 119.890, 203.500 110.820 C 205.700 109.280, 209.428 106.666, 211.785 105.010 C 214.142 103.355, 216.519 102, 217.067 102 C 217.615 102, 225.586 107.121, 234.782 113.380 C 261.123 131.311, 286.815 148.747, 308.500 163.411 C 319.500 170.850, 334.434 180.969, 341.687 185.899 L 354.873 194.862 367.187 186.921 C 373.959 182.554, 379.624 178.613, 379.776 178.163 C 379.927 177.714, 373.852 173.127, 366.276 167.972 C 358.699 162.816, 349.350 156.418, 345.500 153.755 C 341.650 151.092, 332.200 144.632, 324.500 139.399 C 316.800 134.166, 300.494 123.048, 288.265 114.692 C 276.037 106.336, 260.066 95.450, 252.775 90.500 C 245.483 85.550, 235.142 78.463, 229.794 74.750 C 224.446 71.037, 219.041 68.013, 217.785 68.030 C 216.491 68.047, 205.954 74.736, 193.500 83.446 M 205.500 144.598 C 199.450 149.275, 192.965 154.316, 191.090 155.800 C 189.214 157.285, 186.450 159.400, 184.948 160.500 C 182.371 162.387, 175.734 167.461, 141 194.098 C 133.025 200.214, 124.138 206.983, 121.250 209.141 C 118.363 211.298, 116.007 213.386, 116.016 213.782 C 116.024 214.177, 120.024 217.112, 124.903 220.305 L 133.775 226.109 152.138 213.106 C 162.237 205.954, 173.425 198.033, 177 195.504 C 180.575 192.974, 187.100 188.317, 191.500 185.155 C 195.900 181.992, 203.275 176.779, 207.889 173.569 L 216.278 167.733 219.337 169.540 C 221.019 170.534, 227.246 174.756, 233.174 178.923 C 239.102 183.090, 249.926 190.629, 257.226 195.676 C 264.527 200.724, 278.043 210.074, 287.261 216.455 L 304.023 228.058 316.511 219.914 C 323.380 215.435, 329 211.421, 329 210.994 C 329 210.568, 321.238 204.961, 311.750 198.535 C 302.262 192.109, 286.145 181.147, 275.933 174.176 C 265.721 167.204, 252.446 158.155, 246.433 154.066 C 240.420 149.978, 232.016 144.240, 227.757 141.316 C 223.499 138.392, 219.224 136.021, 218.257 136.048 C 217.291 136.074, 211.550 139.922, 205.500 144.598 M 191.500 218.165 C 178.300 227.604, 165.599 236.628, 163.276 238.217 C 160.953 239.806, 158.862 241.420, 158.630 241.803 C 158.003 242.837, 216.533 282.003, 218.670 281.980 C 219.677 281.969, 225.675 278.628, 232 274.555 C 238.325 270.482, 246.875 265, 251 262.374 C 269.917 250.327, 277.960 244.745, 277.492 243.987 C 277.213 243.536, 271.026 238.863, 263.742 233.603 C 256.459 228.343, 243.386 218.855, 234.691 212.520 C 225.996 206.184, 218.121 201, 217.191 201.001 C 216.261 201.001, 204.700 208.725, 191.500 218.165 M 33.214 227.243 C 32.635 227.940, 31.642 236.562, 31.006 246.403 L 29.851 264.295 31.675 266.020 C 32.679 266.969, 74.762 295.267, 125.193 328.905 L 216.885 390.065 293.463 341.403 L 370.041 292.741 369.771 273.120 L 369.500 253.500 368 253.608 C 367.175 253.667, 333.090 275.635, 292.257 302.425 L 218.013 351.135 209.757 345.678 C 205.215 342.678, 199.250 338.651, 196.500 336.730 C 193.750 334.809, 156.625 309.497, 114 280.481 C 71.375 251.465, 35.997 227.331, 35.383 226.850 C 34.710 226.323, 33.847 226.479, 33.214 227.243 M 34.246 298.250 C 33.696 298.938, 32.931 306.495, 32.546 315.045 C 32.161 323.595, 31.768 331.399, 31.673 332.387 C 31.544 333.726, 55.137 350.012, 124.281 396.313 L 217.061 458.443 219.281 457.048 C 220.501 456.280, 242.349 443.070, 267.831 427.691 L 314.163 399.730 313.595 397.615 C 313.283 396.452, 313.021 388.173, 313.014 379.219 L 313 362.937 311.521 362.370 C 310.635 362.030, 291.542 373.435, 263.870 390.834 L 217.697 419.866 201.098 408.572 C 164.034 383.355, 35.950 297, 35.610 297 C 35.409 297, 34.795 297.563, 34.246 298.250" stroke="none" fill="#ffffff" fill-rule="evenodd"/><path d="M 191.500 20.961 C 178.300 29.656, 158.950 42.411, 148.500 49.305 C 138.050 56.199, 120.050 68.021, 108.500 75.578 C 96.950 83.134, 72.650 99.069, 54.500 110.988 C 36.350 122.908, 18.463 134.577, 14.750 136.920 L 8 141.179 8.076 242.840 L 8.151 344.500 28.826 358.144 C 40.197 365.649, 78.975 391.687, 115 416.007 C 151.025 440.328, 188.964 465.805, 199.310 472.625 L 218.119 485.024 238.810 472.653 C 264.724 457.159, 304.676 433.060, 338.500 412.518 C 352.800 403.834, 373.725 391.233, 385 384.515 C 411.199 368.906, 427.365 358.920, 428 357.953 C 428.275 357.534, 428.383 309.227, 428.241 250.603 L 427.982 144.015 402.741 127.341 C 388.858 118.171, 368.050 104.524, 356.500 97.016 C 344.950 89.508, 322.225 74.576, 306 63.834 C 241.830 21.347, 216.849 5.003, 216.189 5.076 C 215.810 5.117, 204.700 12.266, 191.500 20.961 M 179.871 33.956 C 159.867 47.113, 126.175 69.244, 105 83.136 C 83.825 97.029, 57.500 114.317, 46.500 121.553 C 35.500 128.789, 23.238 136.796, 19.250 139.348 L 12 143.987 12 242.443 L 12 340.898 15.250 343.330 C 17.038 344.668, 29.975 353.451, 44 362.850 C 58.025 372.248, 70.044 380.401, 70.708 380.969 C 71.372 381.536, 72.385 382, 72.958 382 C 73.531 382, 74 382.450, 74 383 C 74 383.550, 74.456 384, 75.013 384 C 75.570 384, 81.758 387.974, 88.763 392.831 C 95.768 397.689, 122.200 415.542, 147.500 432.505 C 172.800 449.469, 199.013 467.086, 205.751 471.655 L 218.002 479.962 226.751 474.802 C 231.563 471.964, 242.250 465.518, 250.500 460.477 C 258.750 455.436, 272.925 446.892, 282 441.490 C 291.075 436.088, 306.420 426.818, 316.101 420.889 C 325.781 414.960, 335.971 408.847, 338.744 407.305 C 341.518 405.762, 350.247 400.526, 358.143 395.670 C 366.040 390.813, 384.090 379.863, 398.255 371.336 L 424.009 355.832 423.755 251.166 L 423.500 146.500 411 138.234 C 404.125 133.687, 393.775 126.864, 388 123.071 C 371.829 112.450, 309.874 71.610, 261.980 40 C 238.230 24.325, 218.224 11.171, 217.521 10.768 C 216.723 10.311, 202.574 19.025, 179.871 33.956" stroke="none" fill="#3f2776" fill-rule="evenodd"/><path d="M 199.500 45.588 L 196.500 48.165 199.750 46.015 C 201.537 44.832, 203 43.669, 203 43.432 C 203 42.683, 202.577 42.944, 199.500 45.588 M 229.433 43.891 C 230.146 45.045, 234 47.374, 234 46.650 C 234 46.419, 232.820 45.457, 231.377 44.511 C 229.934 43.566, 229.059 43.287, 229.433 43.891 M 235.433 47.891 C 236.146 49.045, 240 51.374, 240 50.650 C 240 50.419, 238.820 49.457, 237.377 48.511 C 235.934 47.566, 235.059 47.287, 235.433 47.891 M 189.861 52.059 L 187.500 54.119 190.250 52.444 C 191.762 51.523, 193 50.597, 193 50.385 C 193 49.604, 192.165 50.050, 189.861 52.059 M 183.861 56.059 L 181.500 58.119 184.250 56.444 C 185.762 55.523, 187 54.597, 187 54.385 C 187 53.604, 186.165 54.050, 183.861 56.059 M 248 56.364 C 248 56.639, 249.350 57.825, 251 59 C 252.650 60.175, 254 60.911, 254 60.636 C 254 60.361, 252.650 59.175, 251 58 C 249.350 56.825, 248 56.089, 248 56.364 M 171.861 64.059 L 169.500 66.119 172.250 64.444 C 173.762 63.523, 175 62.597, 175 62.385 C 175 61.604, 174.165 62.050, 171.861 64.059 M 261.673 66.080 C 262.914 67.582, 269 71.411, 269 70.689 C 269 70.456, 267.087 69.004, 264.750 67.463 C 262.413 65.921, 261.028 65.299, 261.673 66.080 M 213.872 68.750 L 212.500 70.500 214 69.346 C 214.825 68.711, 216.625 67.985, 218 67.732 L 220.500 67.272 217.872 67.136 C 216.424 67.061, 214.629 67.785, 213.872 68.750 M 155.987 74.634 C 150.031 78.579, 146.623 81.526, 151.500 78.514 C 159.689 73.458, 163.037 71, 161.737 71 C 161.592 71, 159.004 72.635, 155.987 74.634 M 225 71.350 C 225 71.581, 226.180 72.543, 227.623 73.489 C 229.066 74.434, 229.941 74.713, 229.567 74.109 C 228.854 72.955, 225 70.626, 225 71.350 M 271 72.350 C 271 72.581, 272.180 73.543, 273.623 74.489 C 275.066 75.434, 275.941 75.713, 275.567 75.109 C 274.854 73.955, 271 71.626, 271 72.350 M 200.732 77.536 C 198.679 78.931, 197 80.287, 197 80.550 C 197 80.813, 198.800 79.837, 201 78.381 C 204.493 76.070, 205.674 75, 204.732 75 C 204.585 75, 202.785 76.141, 200.732 77.536 M 231 75.311 C 231 75.733, 238.092 80.734, 240.981 82.349 C 241.816 82.816, 241.150 82.065, 239.500 80.679 C 236.235 77.937, 231 74.631, 231 75.311 M 277.433 76.891 C 278.146 78.045, 282 80.374, 282 79.650 C 282 79.419, 280.820 78.457, 279.377 77.511 C 277.934 76.566, 277.059 76.287, 277.433 76.891 M 246.433 85.891 C 247.146 87.045, 251 89.374, 251 88.650 C 251 88.419, 249.820 87.457, 248.377 86.511 C 246.934 85.566, 246.059 85.287, 246.433 85.891 M 293 87.364 C 293 87.639, 294.350 88.825, 296 90 C 297.650 91.175, 299 91.911, 299 91.636 C 299 91.361, 297.650 90.175, 296 89 C 294.350 87.825, 293 87.089, 293 87.364 M 178.861 93.059 L 176.500 95.119 179.250 93.444 C 180.762 92.523, 182 91.597, 182 91.385 C 182 90.604, 181.165 91.050, 178.861 93.059 M 124.732 95.536 C 122.679 96.931, 121 98.287, 121 98.550 C 121 98.813, 122.800 97.837, 125 96.381 C 128.493 94.070, 129.674 93, 128.732 93 C 128.585 93, 126.785 94.141, 124.732 95.536 M 173 97.089 L 170.500 99.134 172.694 98.062 C 173.901 97.472, 175.165 96.542, 175.503 95.995 C 176.406 94.534, 175.800 94.799, 173 97.089 M 306.433 96.891 C 307.146 98.045, 311 100.374, 311 99.650 C 311 99.419, 309.820 98.457, 308.377 97.511 C 306.934 96.566, 306.059 96.287, 306.433 96.891 M 312 100.364 C 312 100.639, 313.350 101.825, 315 103 C 316.650 104.175, 318 104.911, 318 104.636 C 318 104.361, 316.650 103.175, 315 102 C 313.350 100.825, 312 100.089, 312 100.364 M 111 105.089 L 108.500 107.134 110.694 106.062 C 111.901 105.472, 113.165 104.542, 113.503 103.995 C 114.406 102.534, 113.800 102.799, 111 105.089 M 357 103.350 C 357 103.581, 358.180 104.543, 359.623 105.489 C 361.066 106.434, 361.941 106.713, 361.567 106.109 C 360.854 104.955, 357 102.626, 357 103.350 M 208.861 107.059 L 206.500 109.119 209.250 107.444 C 210.762 106.523, 212 105.597, 212 105.385 C 212 104.604, 211.165 105.050, 208.861 107.059 M 105 109.089 L 102.500 111.134 104.694 110.062 C 105.901 109.472, 107.165 108.542, 107.503 107.995 C 108.406 106.534, 107.800 106.799, 105 109.089 M 155.861 109.059 L 153.500 111.119 156.250 109.444 C 157.762 108.523, 159 107.597, 159 107.385 C 159 106.604, 158.165 107.050, 155.861 109.059 M 201.861 112.059 L 199.500 114.119 202.250 112.444 C 203.762 111.523, 205 110.597, 205 110.385 C 205 109.604, 204.165 110.050, 201.861 112.059 M 329 112.350 C 329 112.581, 330.180 113.543, 331.623 114.489 C 333.066 115.434, 333.941 115.713, 333.567 115.109 C 332.854 113.955, 329 111.626, 329 112.350 M 234 113.350 C 234 113.581, 235.180 114.543, 236.623 115.489 C 238.066 116.434, 238.941 116.713, 238.567 116.109 C 237.854 114.955, 234 112.626, 234 113.350 M 335 116.350 C 335 116.581, 336.180 117.543, 337.623 118.489 C 339.066 119.434, 339.941 119.713, 339.567 119.109 C 338.854 117.955, 335 115.626, 335 116.350 M 191.385 119.171 C 187.322 122.229, 186.157 123.433, 188.500 122.151 C 191.101 120.728, 195.679 117.051, 194.885 117.022 C 194.547 117.010, 192.972 117.977, 191.385 119.171 M 83.500 123.588 L 80.500 126.165 83.750 124.015 C 85.537 122.832, 87 121.669, 87 121.432 C 87 120.683, 86.577 120.944, 83.500 123.588 M 246 121.404 C 246 121.679, 248.025 123.297, 250.500 125 C 252.975 126.703, 255 127.871, 255 127.596 C 255 127.321, 252.975 125.703, 250.500 124 C 248.025 122.297, 246 121.129, 246 121.404 M 348.433 125.891 C 349.146 127.045, 353 129.374, 353 128.650 C 353 128.419, 351.820 127.457, 350.377 126.511 C 348.934 125.566, 348.059 125.287, 348.433 125.891 M 35 129.089 C 33.339 130.448, 33.172 130.787, 34.500 130.101 C 37.762 128.415, 39.570 127.030, 38.500 127.038 C 37.950 127.041, 36.375 127.965, 35 129.089 M 256 128.350 C 256 128.581, 257.180 129.543, 258.623 130.489 C 260.066 131.434, 260.941 131.713, 260.567 131.109 C 259.854 129.955, 256 127.626, 256 128.350 M 310 129.350 C 310 129.581, 311.180 130.543, 312.623 131.489 C 314.066 132.434, 314.941 132.713, 314.567 132.109 C 313.854 130.955, 310 128.626, 310 129.350 M 172 133.089 L 169.500 135.134 171.694 134.062 C 172.901 133.472, 174.165 132.542, 174.503 131.995 C 175.406 130.534, 174.800 130.799, 172 133.089 M 357 131.364 C 357 131.639, 358.350 132.825, 360 134 C 361.650 135.175, 363 135.911, 363 135.636 C 363 135.361, 361.650 134.175, 360 133 C 358.350 131.825, 357 131.089, 357 131.364 M 316 133.350 C 316 133.581, 317.180 134.543, 318.623 135.489 C 320.066 136.434, 320.941 136.713, 320.567 136.109 C 319.854 134.955, 316 132.626, 316 133.350 M 165 138.089 L 162.500 140.134 164.694 139.062 C 165.901 138.472, 167.165 137.542, 167.503 136.995 C 168.406 135.534, 167.800 135.799, 165 138.089 M 221.433 136.891 C 222.146 138.045, 226 140.374, 226 139.650 C 226 139.419, 224.820 138.457, 223.377 137.511 C 221.934 136.566, 221.059 136.287, 221.433 136.891 M 268.433 136.891 C 269.146 138.045, 273 140.374, 273 139.650 C 273 139.419, 271.820 138.457, 270.377 137.511 C 268.934 136.566, 268.059 136.287, 268.433 136.891 M 322.433 137.891 C 323.146 139.045, 327 141.374, 327 140.650 C 327 140.419, 325.820 139.457, 324.377 138.511 C 322.934 137.566, 322.059 137.287, 322.433 137.891 M 106.203 143.429 C 101.558 146.713, 100.905 147.652, 104.827 145.406 C 106.657 144.357, 108.624 142.938, 109.199 142.250 C 110.677 140.483, 109.984 140.756, 106.203 143.429 M 328.673 142.080 C 329.914 143.582, 336 147.411, 336 146.689 C 336 146.456, 334.087 145.004, 331.750 143.463 C 329.413 141.921, 328.028 141.299, 328.673 142.080 M 154.500 145.588 L 151.500 148.165 154.750 146.015 C 156.537 144.832, 158 143.669, 158 143.432 C 158 142.683, 157.577 142.944, 154.500 145.588 M 12.481 242 C 12.481 295.625, 12.602 317.563, 12.750 290.750 C 12.898 263.938, 12.898 220.063, 12.750 193.250 C 12.602 166.438, 12.481 188.375, 12.481 242 M 421.744 146.095 C 422.708 147.332, 423.047 166.227, 423.250 230.095 L 423.512 312.500 423.756 229.872 L 424 147.245 422.250 145.872 L 420.500 144.500 421.744 146.095 M 44 150.089 L 41.500 152.134 43.694 151.062 C 44.901 150.472, 46.165 149.542, 46.503 148.995 C 47.406 147.534, 46.800 147.799, 44 150.089 M 243 151.350 C 243 151.581, 244.180 152.543, 245.623 153.489 C 247.066 154.434, 247.941 154.713, 247.567 154.109 C 246.854 152.955, 243 150.626, 243 151.350 M 90.500 154.588 L 87.500 157.165 90.750 155.015 C 92.537 153.832, 94 152.669, 94 152.432 C 94 151.683, 93.577 151.944, 90.500 154.588 M 344.433 152.891 C 345.146 154.045, 349 156.374, 349 155.650 C 349 155.419, 347.820 154.457, 346.377 153.511 C 344.934 152.566, 344.059 152.287, 344.433 152.891 M 35 156 C 32.525 157.645, 30.847 158.993, 31.271 158.996 C 32.143 159.001, 40 153.934, 40 153.367 C 40 152.731, 39.606 152.938, 35 156 M 186.500 158.588 L 183.500 161.165 186.750 159.015 C 188.537 157.832, 190 156.669, 190 156.432 C 190 155.683, 189.577 155.944, 186.500 158.588 M 84 159.089 L 81.500 161.134 83.694 160.062 C 84.901 159.472, 86.165 158.542, 86.503 157.995 C 87.406 156.534, 86.800 156.799, 84 159.089 M 133.861 160.059 L 131.500 162.119 134.250 160.444 C 135.762 159.523, 137 158.597, 137 158.385 C 137 157.604, 136.165 158.050, 133.861 160.059 M 27.189 175.191 C 27.085 183.821, 27.338 191.092, 27.750 191.348 C 28.163 191.605, 28.381 187.019, 28.237 181.157 C 27.751 161.495, 27.380 159.382, 27.189 175.191 M 256 160.350 C 256 160.581, 257.180 161.543, 258.623 162.489 C 260.066 163.434, 260.941 163.713, 260.567 163.109 C 259.854 161.955, 256 159.626, 256 160.350 M 400.900 161.800 C 402.220 162.864, 404.108 163.523, 405.097 163.264 L 406.894 162.794 407.279 168.402 L 407.664 174.010 407.582 168.255 L 407.500 162.500 405.500 162.444 C 404.400 162.413, 402.375 161.820, 401 161.126 L 398.500 159.866 400.900 161.800 M 77 164.089 L 74.500 166.134 76.694 165.062 C 77.901 164.472, 79.165 163.542, 79.503 162.995 C 80.406 161.534, 79.800 161.799, 77 164.089 M 127.500 164.625 C 125.702 166.155, 125.334 166.763, 126.582 166.143 C 128.415 165.233, 131.853 161.941, 130.872 162.036 C 130.668 162.056, 129.150 163.221, 127.500 164.625 M 178 165.122 L 174.500 168.190 177.720 166.049 C 179.491 164.871, 181.205 163.478, 181.529 162.953 C 182.493 161.393, 181.693 161.884, 178 165.122 M 262.433 164.891 C 263.146 166.045, 267 168.374, 267 167.650 C 267 167.419, 265.820 166.457, 264.377 165.511 C 262.934 164.566, 262.059 164.287, 262.433 164.891 M 70.500 168.588 L 67.500 171.165 70.750 169.015 C 72.537 167.832, 74 166.669, 74 166.432 C 74 165.683, 73.577 165.944, 70.500 168.588 M 312 166.350 C 312 166.581, 313.180 167.543, 314.623 168.489 C 316.066 169.434, 316.941 169.713, 316.567 169.109 C 315.854 167.955, 312 165.626, 312 166.350 M 268.433 168.891 C 269.146 170.045, 273 172.374, 273 171.650 C 273 171.419, 271.820 170.457, 270.377 169.511 C 268.934 168.566, 268.059 168.287, 268.433 168.891 M 116.861 172.059 L 114.500 174.119 117.250 172.444 C 118.763 171.523, 120 170.597, 120 170.385 C 120 169.604, 119.165 170.050, 116.861 172.059 M 220 170.350 C 220 170.581, 221.180 171.543, 222.623 172.489 C 224.066 173.434, 224.941 173.713, 224.567 173.109 C 223.854 171.955, 220 169.626, 220 170.350 M 318 170.350 C 318 170.581, 319.180 171.543, 320.623 172.489 C 322.066 173.434, 322.941 173.713, 322.567 173.109 C 321.854 171.955, 318 169.626, 318 170.350 M 205.861 175.059 L 203.500 177.119 206.250 175.444 C 207.762 174.523, 209 173.597, 209 173.385 C 209 172.604, 208.165 173.050, 205.861 175.059 M 110.500 176.588 L 107.500 179.165 110.750 177.015 C 112.537 175.832, 114 174.669, 114 174.432 C 114 173.683, 113.577 173.944, 110.500 176.588 M 226.433 174.891 C 227.146 176.045, 231 178.374, 231 177.650 C 231 177.419, 229.820 176.457, 228.377 175.511 C 226.934 174.566, 226.059 174.287, 226.433 174.891 M 324 174.350 C 324 174.581, 325.180 175.543, 326.623 176.489 C 328.066 177.434, 328.941 177.713, 328.567 177.109 C 327.854 175.955, 324 173.626, 324 174.350 M 103.500 181.588 L 100.500 184.165 103.750 182.015 C 105.537 180.832, 107 179.669, 107 179.432 C 107 178.683, 106.577 178.944, 103.500 181.588 M 97 186.089 L 94.500 188.134 96.694 187.062 C 97.901 186.472, 99.165 185.542, 99.503 184.995 C 100.406 183.534, 99.800 183.799, 97 186.089 M 147.962 188.072 L 144.500 191.144 148.250 188.453 C 151.564 186.076, 152.642 185, 151.712 185 C 151.554 185, 149.866 186.382, 147.962 188.072 M 243 186.350 C 243 186.581, 244.180 187.543, 245.623 188.489 C 247.066 189.434, 247.941 189.713, 247.567 189.109 C 246.854 187.955, 243 185.626, 243 186.350 M 75 187.350 C 75 187.581, 76.180 188.543, 77.623 189.489 C 79.066 190.434, 79.941 190.713, 79.567 190.109 C 78.854 188.955, 75 186.626, 75 187.350 M 181.861 192.059 L 179.500 194.119 182.250 192.444 C 183.762 191.523, 185 190.597, 185 190.385 C 185 189.604, 184.165 190.050, 181.861 192.059 M 249.433 190.891 C 250.146 192.045, 254 194.374, 254 193.650 C 254 193.419, 252.820 192.457, 251.377 191.511 C 249.934 190.566, 249.059 190.287, 249.433 190.891 M 139.500 194.588 L 136.500 197.165 139.750 195.015 C 141.537 193.832, 143 192.669, 143 192.432 C 143 191.683, 142.577 191.944, 139.500 194.588 M 255 194.364 C 255 194.639, 256.350 195.825, 258 197 C 259.650 198.175, 261 198.911, 261 198.636 C 261 198.361, 259.650 197.175, 258 196 C 256.350 194.825, 255 194.089, 255 194.364 M 166.732 202.536 C 164.679 203.931, 163 205.287, 163 205.550 C 163 205.813, 164.800 204.837, 167 203.381 C 170.493 201.070, 171.674 200, 170.732 200 C 170.585 200, 168.785 201.141, 166.732 202.536 M 214.589 200.856 C 214.298 201.326, 215.172 201.499, 216.530 201.239 C 217.889 200.979, 219 200.594, 219 200.383 C 219 199.610, 215.101 200.027, 214.589 200.856 M 224 204.364 C 224 204.639, 225.350 205.825, 227 207 C 228.650 208.175, 230 208.911, 230 208.636 C 230 208.361, 228.650 207.175, 227 206 C 225.350 204.825, 224 204.089, 224 204.364 M 201.861 210.059 L 199.500 212.119 202.250 210.444 C 203.762 209.523, 205 208.597, 205 208.385 C 205 207.604, 204.165 208.050, 201.861 210.059 M 275 208.425 C 275 208.700, 277.700 210.759, 281 213 C 284.300 215.241, 287 216.850, 287 216.575 C 287 216.300, 284.300 214.241, 281 212 C 277.700 209.759, 275 208.150, 275 208.425 M 152 213.089 L 149.500 215.134 151.694 214.062 C 152.901 213.472, 154.165 212.542, 154.503 211.995 C 155.406 210.534, 154.800 210.799, 152 213.089 M 195.500 214.588 L 192.500 217.165 195.750 215.015 C 197.537 213.832, 199 212.669, 199 212.432 C 199 211.683, 198.577 211.944, 195.500 214.588 M 235 212.364 C 235 212.639, 236.350 213.825, 238 215 C 239.650 216.175, 241 216.911, 241 216.636 C 241 216.361, 239.650 215.175, 238 214 C 236.350 212.825, 235 212.089, 235 212.364 M 144.500 218.588 L 141.500 221.165 144.750 219.015 C 146.537 217.832, 148 216.669, 148 216.432 C 148 215.683, 147.577 215.944, 144.500 218.588 M 187.861 220.059 L 185.500 222.119 188.250 220.444 C 189.762 219.523, 191 218.597, 191 218.385 C 191 217.604, 190.165 218.050, 187.861 220.059 M 243 218.350 C 243 218.581, 244.180 219.543, 245.623 220.489 C 247.066 221.434, 247.941 221.713, 247.567 221.109 C 246.854 219.955, 243 217.626, 243 218.350 M 137.500 223.588 L 134.500 226.165 137.750 224.015 C 139.537 222.832, 141 221.669, 141 221.432 C 141 220.683, 140.577 220.944, 137.500 223.588 M 311.861 223.059 L 309.500 225.119 312.250 223.444 C 313.762 222.523, 315 221.597, 315 221.385 C 315 220.604, 314.165 221.050, 311.861 223.059 M 305.861 227.059 L 303.500 229.119 306.250 227.444 C 307.762 226.523, 309 225.597, 309 225.385 C 309 224.604, 308.165 225.050, 305.861 227.059 M 32.252 231.500 C 32.263 233.700, 32.468 234.482, 32.707 233.238 C 32.946 231.994, 32.937 230.194, 32.687 229.238 C 32.437 228.282, 32.241 229.300, 32.252 231.500 M 164 237.089 L 161.500 239.134 163.694 238.062 C 164.901 237.472, 166.165 236.542, 166.503 235.995 C 167.406 234.534, 166.800 234.799, 164 237.089 M 346.250 239.115 C 342.841 241.298, 341.738 242.764, 344.750 241.108 C 347.044 239.847, 350.639 237.068, 350 237.049 C 349.725 237.040, 348.038 237.970, 346.250 239.115 M 31.320 244 C 31.320 247.575, 31.502 249.037, 31.723 247.250 C 31.945 245.463, 31.945 242.537, 31.723 240.750 C 31.502 238.963, 31.320 240.425, 31.320 244 M 276.807 243.207 C 277.749 244.149, 277.410 244.934, 275.257 246.790 L 272.500 249.165 275.791 246.985 L 279.083 244.805 277.919 243.402 C 277.279 242.631, 276.495 242, 276.178 242 C 275.860 242, 276.143 242.543, 276.807 243.207 M 162.433 245.891 C 163.146 247.045, 167 249.374, 167 248.650 C 167 248.419, 165.820 247.457, 164.377 246.511 C 162.934 245.566, 162.059 245.287, 162.433 245.891 M 168 249.404 C 168 249.679, 170.025 251.297, 172.500 253 C 174.975 254.703, 177 255.871, 177 255.596 C 177 255.321, 174.975 253.703, 172.500 252 C 170.025 250.297, 168 249.129, 168 249.404 M 367.792 253.759 C 368.791 254.463, 369.018 259.124, 368.792 274.287 C 368.631 285.077, 368.847 293.556, 369.272 293.130 C 369.697 292.704, 369.922 283.650, 369.772 273.010 L 369.500 253.665 368 253.256 C 366.847 252.942, 366.799 253.059, 367.792 253.759 M 30.180 259.595 L 30 264.690 32.250 266.595 L 34.500 268.500 32.815 266.493 C 31.888 265.389, 30.956 262.239, 30.745 259.493 L 30.360 254.500 30.180 259.595 M 178 256.350 C 178 256.581, 179.180 257.543, 180.623 258.489 C 182.066 259.434, 182.941 259.713, 182.567 259.109 C 181.854 257.955, 178 255.626, 178 256.350 M 243.861 267.059 L 241.500 269.119 244.250 267.444 C 245.762 266.523, 247 265.597, 247 265.385 C 247 264.604, 246.165 265.050, 243.861 267.059 M 226.250 278.115 C 222.841 280.298, 221.738 281.764, 224.750 280.108 C 227.044 278.847, 230.639 276.068, 230 276.049 C 229.725 276.040, 228.037 276.970, 226.250 278.115 M 219 282 L 216.500 282.801 218.691 282.900 C 219.896 282.955, 221.160 282.550, 221.500 282 C 221.840 281.450, 221.979 281.045, 221.809 281.100 C 221.639 281.155, 220.375 281.560, 219 282 M 34.200 298.200 C 33.470 298.930, 33.069 301.963, 33.177 305.950 L 33.353 312.500 33.927 305.500 L 34.500 298.500 36.239 298.637 C 37.196 298.712, 37.732 298.375, 37.430 297.887 C 36.680 296.673, 35.625 296.775, 34.200 298.200 M 32.310 322.500 C 32.315 325.800, 32.502 327.029, 32.725 325.232 C 32.947 323.435, 32.943 320.735, 32.715 319.232 C 32.486 317.729, 32.304 319.200, 32.310 322.500 M 16 343.404 C 16 343.679, 18.025 345.297, 20.500 347 C 22.975 348.703, 25 349.871, 25 349.596 C 25 349.321, 22.975 347.703, 20.500 346 C 18.025 344.297, 16 343.129, 16 343.404 M 312.385 375 C 312.385 381.875, 312.545 384.688, 312.740 381.250 C 312.936 377.813, 312.936 372.188, 312.740 368.750 C 312.545 365.313, 312.385 368.125, 312.385 375" stroke="none" fill="#f6dccb" fill-rule="evenodd"/></svg>